# File generated by ImageToStl.com - Free Image and 3D model conversion tools

o obj1
v 14.31069946 -0.0311839 9.10863018
v 18.7259903 5.66380072 11.10945415
v 13.82380009 -0.0311839 9.82406998
v -10.02159977 -0.0311839 15.45560074
v -9.20487976 -0.0311839 15.16180038
v -8.22157955 -0.0311839 14.79349995
v -5.26718998 -0.0311839 17.03499985
v -4.32757998 -0.0311839 17.84670067
v -6.06231022 -0.0311839 16.18729973
v 6.03015995 -0.0311839 16.01110077
v 7.18217659 3.38071322 16.68545914
v 5.42420006 -0.0311839 16.16869926
v 16.25559998 -0.0311839 1.43088996
v 20.6412487 3.90417266 -0.36673498
v 16.66959953 -0.0311839 1.84983003
v -2.54966998 -0.0311839 -9.17862034
v -6.50146961 -0.0311839 -9.56807041
v -1.74164999 -0.0311839 -9.02064037
v -10.87320042 -0.0311839 15.67119884
v -10.93303013 4.46707439 12.68502712
v -12.81210041 -0.0311839 15.92809963
v 17.70750046 -0.0311839 3.29817009
v 17.21870041 -0.0311839 2.49052
v 15.32860088 -0.0311839 0.62071598
v 4.68015909 2.89802074 -8.87258434
v 7.97227001 -0.0311839 -7.44988966
v 7.11075068 -0.0311839 -7.61013985
v 10.90620041 -0.0311839 14.4666996
v 9.82835007 -0.0311839 15.07309914
v 4.6902709 31.07104111 5.2205162
v 9.04227638 30.6839962 1.64193368
v 2.51652479 28.25505447 -3.06745052
v 17.29000092 -0.0311839 6.14780998
v 22.3628006 3.7310226 7.7817812
v 16.66469955 -0.0311839 6.92222929
v -13.99530125 -0.0311839 -2.84184003
v -11.73670006 -0.0311839 -3.52390003
v -12.96949959 -0.0311839 -3.17055011
v -15.49549961 -0.0311839 6.45326996
v -17.4178009 -0.0311839 4.35921001
v -16.26810074 -0.0311839 5.67644978
v -10.28429985 -0.0311839 -4.51811981
v -10.97350025 -0.0311839 -3.77040005
v -6.68547726 4.10420322 -4.33268785
v 12.21925831 19.46157265 -7.12798738
v 4.54728413 22.33615494 -7.45584679
v 10.25141811 27.60152435 -3.04650235
v -19.72317505 23.79733658 12.63821888
v -17.82103729 20.10390472 13.72288132
v -10.93491554 23.11403084 13.44544697
v -16.53589058 24.84011459 -3.89059591
v -20.04140282 18.2600975 -3.46570516
v -22.77962875 23.28728485 0.68046325
v 14.55539989 -0.0311839 0.179819
v 13.90299988 -0.0311839 -0.0557561
v 2.63845992 -0.0311839 -8.12629032
v -18.55669975 -0.0311839 1.21205997
v -16.63100052 -0.0311839 -1.60581005
v -4.82930946 9.28081226 -7.08435965
v -2.85484624 15.77618885 -11.30574703
v 0.84860671 8.96384907 -11.48945618
v 10.6093998 -0.0311839 -6.2541399
v 9.62510967 -0.0311839 -6.95957041
v 0.56709802 -0.0311839 -8.50841045
v -0.56506801 -0.0311839 -8.76708031
v -5.69777346 29.78249741 0.83526051
v -4.41741753 29.11797333 7.03049946
v -3.42045283 47.86882401 -3.28333902
v -3.27334714 44.14274597 -2.6140151
v 0.21677633 48.60083008 -7.31540298
v -6.00734472 42.26189423 -4.02568388
v -8.80820656 44.02283859 -1.8287046
v -9.22722912 43.1654892 1.26299703
v -14.45665073 38.96952438 0.50407493
v -20.51773453 38.24809265 -2.58018255
v -24.54367256 34.86128616 7.03793335
v -20.89883041 39.04616165 5.76894331
v -12.55674744 38.63127899 5.40392828
v -17.60002708 36.89064407 -8.4054842
v -16.43199348 39.9577713 -15.95186138
v -15.3756752 40.143013 -10.94953728
v -16.14595032 36.44944382 13.2032299
v -13.37986374 34.31325912 11.07708454
v -15.86723232 41.95908356 -8.52639771
v -14.51028061 33.72973633 -1.70689929
v 3.36471701 27.08593559 12.77170849
v -2.28820252 27.47317505 10.62091255
v 17.13895416 22.85899925 -1.99238348
v 12.18200016 -0.0311839 -2.82433009
v 11.86800003 -0.0311839 -3.91865969
v 15.71467209 5.89202881 -4.55157089
v 1.35407996 -0.0311839 -8.34434986
v -15.09369946 -0.0311839 7.72477007
v -11.87228584 4.8452673 6.19305658
v -14.78199959 -0.0311839 7.10852003
v 4.62193012 -0.0311839 16.39940071
v 2.69935989 -0.0311839 16.97139931
v 3.69362998 -0.0311839 16.6760006
v 7.98163986 -0.0311839 15.61489964
v 7.15193033 -0.0311839 15.7823
v 1.29524994 44.41704559 -7.03231144
v -5.13098192 39.33886719 -1.12460279
v -2.32230115 41.43405151 -1.27443802
v -18.3893261 43.1316452 -14.83794785
v -16.63690948 45.6415863 -18.83577728
v -18.22594261 43.85284042 -8.43126392
v -20.17238617 43.12981796 -9.7863102
v -24.17482948 35.82269287 10.45319462
v -18.66258621 38.52980804 11.31186485
v -21.03050041 32.11181641 16.81539726
v -23.70160294 29.32308769 15.53357506
v -10.98137283 34.3221283 2.05894589
v -21.0118351 33.44402313 -0.63730264
v -24.82739258 26.98276711 9.26231861
v -23.70919037 25.86495972 14.44818687
v -18.59396935 26.30478859 16.9418869
v -14.62222576 28.5822773 14.27790165
v -9.71946049 29.79187584 8.67559624
v -24.93928146 30.22569656 3.65871692
v 12.12889671 29.26229286 8.01870441
v 5.64923239 21.29265785 16.27736473
v 9.97687435 26.90180588 12.31702328
v 14.60916901 28.01457977 3.08421826
v -24.10151291 22.61509323 5.13166714
v 12.76343536 18.97298241 15.99715042
v -9.03564644 28.10625648 -3.11447811
v -6.06692457 20.88780594 -7.06363916
v -22.67032433 15.15531635 1.40949941
v -2.98293924 18.21543312 16.1650219
v -22.54805946 18.30507851 9.89169884
v 17.35007095 22.2563324 10.52628613
v 3.17468691 18.17362976 -11.13280964
v -22.6862793 14.97951031 7.09475183
v -12.96193314 14.54781055 14.83664989
v 1.82107162 18.89675331 18.33254051
v 20.12098885 19.97051811 4.7887044
v 18.87557793 22.2301712 1.86850071
v 2.81996179 14.82850075 -11.94213772
v -17.79587173 10.27025032 9.34904766
v -19.21399879 14.52851677 12.55443001
v 0.28755412 15.45217133 19.26680183
v 7.66397381 15.00149632 19.04014397
v -1.88932896 11.0596199 16.96636391
v 17.07824707 12.92909241 13.31961727
v 20.87211418 13.7863884 7.52269459
v 7.85234118 7.70654631 -9.96610641
v -14.61429596 14.77484322 -5.87004662
v -19.36146927 13.39752483 -2.76429653
v 6.97020531 8.31631756 18.76094437
v 20.65751076 11.35467625 0.07261045
v -5.89433956 15.3299818 -7.71619177
v -5.73038864 12.305686 14.28673363
v 24.69518661 8.65543461 7.71832466
v 18.31964302 13.99776745 -3.79701591
v 12.9859724 11.96365929 -8.26424026
v -14.71578121 7.52601433 1.58495474
v -18.52478409 9.78197861 1.47946012
v -10.85872269 9.4062891 -3.96928406
v -13.48826694 7.49617815 7.99518871
v 24.13824272 11.27604103 4.35131454
v -10.77270889 9.56186008 13.2464838
v 24.56236649 6.50464344 2.28249002
v -15.82530022 -0.0311839 8.7565403
v -2.18567991 -0.0311839 18.39520073
v -6.82611942 -0.0311839 15.32980061
v 12.60219955 -0.0311839 -1.54832995
v -8.46086979 -0.0311839 -8.58403015
v -8.99641991 -0.0311839 -7.80245066
v -0.94358897 -0.0311839 18.01959991
v 0.382972 -0.0311839 17.62380028
v -3.20576 -0.0311839 18.33519936
v 8.9238596 -0.0311839 15.38910007
v 14.82719898 -0.0311839 8.54763985
v -16.32679939 -0.0311839 12.88249969
v -15.34879971 -0.0311839 14.73309994
v -16.52549934 -0.0311839 11.77880001
v 17.69680023 -0.0311839 5.34696007
v 17.91250038 -0.0311839 4.35537004
v -5.67095995 -0.0311839 -9.68992043
v -14.59979916 -0.0311839 -2.62333012
v -15.45019913 -0.0311839 -2.26349998
v 1.69921005 -0.0311839 17.25639915
v 13.35980034 -0.0311839 10.77499962
v 12.97259903 -0.0311839 11.82199955
v 11.47679996 -0.0311839 -4.8792901
v 11.07359982 -0.0311839 -5.62045002
v 5.98569012 -0.0311839 -7.74678946
v 3.96151996 -0.0311839 -7.94745016
v -4.40180016 -0.0311839 -9.57003975
v -3.32813978 -0.0311839 -9.33742046
v -9.93978024 -0.0311839 -5.44033003
v -18.03409958 -0.0311839 0.0611493
v -17.37969971 -0.0311839 -0.90110904
v -16.91640091 -0.0311839 4.96509981
v -18.58090019 -0.0311839 2.36702991
v -18.21780014 -0.0311839 3.35382986
v -14.5442009 -0.0311839 15.39220047
v -7.52852011 -0.0311839 14.67570019
v 13.04450035 -0.0311839 -0.75676697
v 4.8289299 -0.0311839 -7.85658979
v 11.89729977 -0.0311839 13.71239948
v 12.4932003 -0.0311839 12.9527998
v 15.63560009 -0.0311839 7.84686995
v 8.88986969 -0.0311839 -7.21768999
v -7.30825043 -0.0311839 -9.27766991
v -16.00869942 -0.0311839 13.81029892
v -16.10860062 -0.0311839 9.35937023
v -16.51230049 -0.0311839 10.4460001
v -11.68889999 -0.0311839 15.7979002
v -13.3757 -0.0311839 15.83809948
v -9.50395966 -0.0311839 -6.64779949
vn 0.63345 -0.64257 0.4311
vn 0 1 0
vn 0.24262 -0.2663 0.93286
vn 0.4752 -0.74408 -0.4696
vn 0.10963 0.55075 0.82744
vn 0.5698 -0.74593 -0.34485
vn 0.4477 -0.73291 -0.51225
vn 0.17646 -0.26244 -0.94868
vn 0.48421 -0.1575 0.86066
vn -0.14845 0.94756 -0.28302
vn 0.46939 -0.79751 0.37901
vn -0.61078 0.55678 -0.56298
vn 0.50249 -0.74969 -0.43066
vn 0.21578 0.47885 -0.85096
vn -0.06947 0.24799 0.96627
vn -0.61149 0.27793 -0.74083
vn 0.284 -0.54842 -0.7865
vn 0.14659 -0.33895 -0.92931
vn -0.59464 -0.30319 -0.74464
vn 0.53071 0.41231 -0.7405
vn -0.18055 0.9733 0.14171
vn 0.72041 0.15007 0.67711
vn -0.56152 0.12701 -0.81766
vn -0.5461 0.82338 0.15432
vn -0.52272 0.20193 -0.82825
vn -0.76482 0.63708 -0.09581
vn 0.05174 0.99747 0.04879
vn 0.76392 -0.63038 -0.13797
vn 0.73674 0.48226 0.47396
vn 0.97842 0.20099 0.04785
vn -0.10998 0.88687 0.44874
vn 0.44876 0.48488 -0.75067
vn 0.80456 -0.54717 -0.23086
vn -0.81444 0.40863 -0.41195
vn 0.19135 -0.25275 0.94842
vn -0.30199 0.186 -0.93499
vn -0.076 -0.71379 -0.69623
vn 0.67113 0.22088 0.70767
vn -0.33822 -0.15005 -0.92903
vn 0.59602 -0.80192 -0.04099
vn -0.79021 -0.29971 -0.53455
vn 0.61564 0.75554 0.22392
vn -0.40393 0.90987 0.09473
vn 0.57946 0.5156 0.63118
vn -0.93533 0.12726 -0.33009
vn 0.97666 -0.06815 -0.20371
vn -0.59994 0.68262 -0.41726
vn 0.45494 0.39488 0.79818
vn -0.62397 0.72485 0.29198
vn 0.66135 -0.0233 0.74972
vn 0.96987 0.24321 0.01447
vn -0.76489 0.63687 -0.09667
vn 0.05267 0.99605 0.07154
vn -0.70336 0.40526 0.58399
vn -0.99894 0.00295 -0.04588
vn -0.85494 -0.42078 -0.30335
vn -0.86787 -0.391 -0.30647
vn 0.62216 0.76704 0.15675
vn 0.64463 -0.30761 0.69988
vn 0.98918 0.04832 -0.13851
vn -0.91106 -0.07057 -0.4062
vn -0.7392 0.57434 0.35173
vn 0.30158 0.88443 0.35614
vn -0.89862 -0.08189 -0.43101
vn -0.02467 0.65599 0.75437
vn 0.95516 0.15188 0.25419
vn -0.46292 0.86242 0.20479
vn -0.99446 0.00946 0.10474
vn 0.67819 0.27979 -0.67954
vn 0.87205 -0.45458 0.18132
vn -0.84124 -0.43596 -0.31976
vn -0.48802 -0.86897 -0.08208
vn -0.40243 -0.27334 0.87369
vn 0.45648 0.20663 0.86541
vn 0.81184 0.54228 0.21645
vn -0.97836 -0.06001 0.19802
vn -0.26338 -0.47741 -0.83828
vn -0.99758 0.04966 0.04866
vn -0.32768 -0.11707 0.93751
vn 0.46848 0.69297 -0.54801
vn -0.16784 0.27107 -0.94781
vn 0.31314 0.5136 0.79885
vn 0.14862 0.98604 0.07505
vn 0.18965 0.97382 0.12531
vn 0.0206 0.94498 -0.32648
vn 0.07258 0.84187 -0.53478
vn -0.5904 -0.00196 -0.80711
vn 0.45814 0.21104 0.86346
vn 0.71016 0.21964 0.66891
vn 0.03689 0.88111 0.47148
vn 0.1769 -0.6661 -0.72458
vn -0.05689 -0.82274 -0.56556
vn 0.66651 0.34916 0.65867
vn -0.09733 0.88171 0.46164
vn 0.07274 0.53719 0.84032
vn 0.43434 0.9007 -0.00943
vn -0.7543 0.04632 -0.65489
vn 0.0586 0.86235 0.50291
vn -0.939 -0.16207 -0.30333
vn 0.60989 -0.74384 0.27336
vn 0.18624 0.46674 0.86456
vn -0.01034 0.92359 -0.38323
vn 0.45932 0.60902 -0.64663
vn -0.10169 0.44496 -0.88976
vn -0.95628 -0.03884 -0.28985
vn -0.17475 0.45839 0.8714
vn 0.47838 0.78533 -0.39295
vn -0.0026 0.47913 -0.87774
vn -0.67052 -0.56554 0.48017
vn 0.65732 0.67438 0.33637
vn 0.55377 0.70617 -0.4412
vn -0.86328 -0.05657 -0.50154
vn -0.85886 0.20759 0.46825
vn -0.60861 -0.08165 0.78926
vn 0.48975 0.50274 0.71232
vn 0.25442 0.59178 -0.7649
vn -0.9712 -0.12842 0.20068
vn -0.18769 -0.82647 0.53077
vn 0.52657 0.60587 0.59636
vn 0.74479 0.63186 0.21459
vn -0.11943 0.67913 -0.72423
vn -0.03374 0.16799 0.98521
vn -0.30982 0.85384 0.41829
vn -0.18306 0.76401 0.6187
vn 0.78275 0.60728 0.13609
vn -0.00376 0.23936 -0.97092
vn 0.37674 0.1799 -0.90868
vn -0.19564 0.55056 -0.81155
vn -0.72315 -0.55266 0.41426
vn -0.79802 -0.36811 0.47712
vn -0.62824 -0.00609 0.778
vn -0.42294 0.40778 0.80922
vn 0.19093 0.44531 0.87478
vn -0.10766 0.56802 -0.81594
vn -0.69982 -0.02702 0.71381
vn 0.69426 0.18784 0.69478
vn 0.90624 0.2581 0.33483
vn 0.18681 -0.13787 -0.97267
vn -0.33712 0.1193 -0.93387
vn -0.80685 -0.19334 -0.55822
vn -0.38507 -0.27116 0.88215
vn 0.02796 -0.04461 0.99861
vn 0.81834 0.14287 0.5567
vn 0.94755 0.19684 -0.2518
vn -0.73594 -0.19722 -0.64768
vn -0.57114 0.00464 0.82084
vn -0.16713 -0.22458 0.96002
vn 0.58017 -0.12871 0.80426
vn 0.35433 0.29781 0.88643
vn 0.6195 0.23508 -0.74897
vn 0.37845 0.1764 -0.90866
vn -0.4184 -0.73161 -0.53823
vn 0.17908 0.4431 0.8784
vn 0.90571 0.19711 -0.37528
vn -0.06824 0.24144 -0.96801
vn -0.79144 -0.61088 -0.02111
vn -0.71513 -0.69043 0.10908
vn -0.11749 -0.03711 -0.99238
vn -0.23696 0.14372 -0.96083
vn -0.74102 -0.57619 -0.3448
vn -0.51615 -0.85057 0.10058
vn 0.38418 0.87437 -0.29646
vn 0.75331 0.57356 0.32181
vn 0.59049 0.17962 -0.7868
vn 0.33369 -0.02567 -0.94233
vn -0.41922 -0.73022 -0.53947
vn -0.46788 -0.44834 0.76163
vn -0.02509 -0.31374 0.94918
vn 0.11592 0.13244 0.98439
vn 0.04462 0.24296 0.96901
vn 0.48221 -0.15304 0.86258
vn 0.99376 0.09442 -0.05944
vn -0.76529 0.05157 -0.64161
vn -0.49779 -0.19162 -0.84586
vn 0.66422 -0.09987 0.74084
vn 0.41113 -0.10751 0.90521
vn -0.16109 -0.42762 -0.88949
vn -0.45503 -0.17138 -0.87383
vn -0.21247 0.10744 -0.97124
vn -0.35524 -0.52286 -0.77487
vn -0.50928 -0.8555 0.09354
vn -0.79576 -0.58683 0.14965
vn -0.35489 -0.79286 0.49541
vn 0.53689 0.04849 -0.84226
vn 0.5485 -0.24276 -0.80014
vn 0.14106 -0.3157 -0.93832
vn -0.7682 0.33638 -0.54471
vn 0.27945 0.11534 0.95321
vn 0.57243 -0.26111 0.77727
vn -0.14647 -0.1038 0.98375
vn -0.54199 0.11848 0.83199
vn 0.99034 0.11893 -0.07125
vn 0.73707 0.32293 -0.59367
vn 0.77571 -0.19337 -0.60073
vn -0.95019 0.22745 -0.21306
vn -0.35283 0.25489 -0.9003
vn -0.8842 -0.02359 0.46652
vn 0.36634 -0.34727 0.86325
vn 0.80998 -0.54073 -0.22702
vn -0.60249 0.68307 -0.41283
vn -0.8304 0.52857 0.17619
vn -0.54711 0.12132 0.82822
vn 0 -1 0
vn 0.45029 -0.80202 -0.39244
vn 0.89491 -0.42199 0.1451
vn 0.11722 0.05821 -0.9914
vn 0.26557 -0.27671 0.92353
vn 0.06543 -0.38441 0.92084
vn 0.22606 -0.24302 0.94331
vn 0.36259 -0.57732 0.73159
vn 0.47668 -0.23634 -0.84671
vn 0.66741 -0.14652 -0.73014
vn -0.44388 -0.29129 -0.84742
vn -0.82345 -0.56076 0.08647
vn 0.5185 -0.81351 0.26338
vn 0.69839 -0.70279 -0.13542
vn 0.79357 -0.5495 -0.26133
vn -0.69969 0.71226 0.05579
vn -0.44603 0.11466 0.88764
vn 0.58178 -0.80344 0.12655
vn 0.69572 -0.67066 0.25729
vn 0.61343 -0.77612 -0.14609
vn 0.75256 -0.51578 -0.4094
vn 0.77944 -0.54011 -0.31742
vn 0.11458 -0.31148 -0.94332
vn 0.1266 -0.32685 -0.93656
vn -0.71759 0.6371 -0.28139
vn -0.73013 0.66785 0.14454
vn -0.32789 0.63878 0.69603
vn 0.19337 -0.25267 0.94803
vn 0.57213 -0.62864 0.52676
vn 0.71413 -0.46515 -0.52312
vn 0.08945 -0.32233 -0.94239
vn -0.22105 -0.10755 -0.96931
vn -0.81316 0.38891 -0.43303
vn -0.35026 0.21607 0.91139
vn 0.26535 0.5357 0.80164
vn 0.324 -0.18697 0.9274
vn 0.65627 -0.5516 0.51483
vn 0.69073 -0.66117 0.29283
vn 0.43163 -0.76349 0.48039
vn 0.67716 -0.65747 0.33042
vn 0.71108 -0.68353 -0.16476
vn 0.37063 -0.66344 -0.64998
vn 0.33071 -0.05692 -0.94201
vn 0.22532 -0.35498 -0.90732
vn 0.24078 -0.19153 -0.9515
vn 0.09864 -0.32162 -0.94172
vn -0.30019 0.74337 -0.59773
vn -0.99174 -0.11862 -0.04885
vn -0.3405 -0.11061 0.93372
vn 0.56937 -0.34078 0.74812
vn 0.42807 -0.7569 0.49382
vn -0.57292 0.30571 -0.76046
vn -0.85227 -0.00486 0.52308
vn 0.14828 -0.31129 -0.93867
vn 0.83503 0.02214 0.54977
vn -0.38323 -0.11319 0.91669
vn -0.06752 0.39826 0.91479
vn -0.26327 -0.63462 0.7266
vn 0.89379 0.21173 -0.39537
vn -0.98283 -0.18434 -0.00846
vn 0.81066 0.56826 0.14112
vn 0.75616 0.60838 -0.24103
vn 0.05339 0.60649 -0.7933
vn -0.24325 0.81912 0.5195
vn -0.10613 -0.21922 0.96989
vn 0.6979 0.22792 0.67896
vn -0.98594 0.07733 0.14813
vn -0.80612 0.39196 -0.44332
vn 0.3803 0.83035 0.4073
vn -0.6319 0.76467 0.12641
vn -0.07425 0.84501 0.52957
vn -0.22567 0.36705 0.90241
vn 0.51778 0.17102 0.83825
f 1//1 2//1 3//1
f 4//2 5//2 6//2
f 7//2 8//2 9//2
f 10//3 11//3 12//3
f 13//4 14//4 15//4
f 16//2 17//2 18//2
f 19//5 20//5 21//5
f 14//6 22//6 23//6
f 14//7 13//7 24//7
f 25//8 26//8 27//8
f 28//9 2//9 29//9
f 30//10 31//10 32//10
f 33//11 34//11 35//11
f 36//2 37//2 38//2
f 39//2 40//2 41//2
f 42//12 43//12 44//12
f 15//13 14//13 23//13
f 45//14 46//14 47//14
f 48//15 49//15 50//15
f 51//16 52//16 53//16
f 14//17 54//17 55//17
f 25//18 56//18 17//18
f 57//2 40//2 58//2
f 59//19 60//19 61//19
f 25//20 62//20 63//20
f 17//2 64//2 65//2
f 66//21 67//21 30//21
f 68//22 69//22 70//22
f 70//23 71//23 72//23
f 68//24 72//24 73//24
f 72//25 71//25 74//25
f 75//26 76//26 77//26
f 77//27 78//27 74//27
f 79//28 80//28 81//28
f 78//29 82//29 83//29
f 84//30 85//30 81//30
f 86//31 30//31 87//31
f 47//32 88//32 45//32
f 89//33 90//33 91//33
f 17//2 56//2 92//2
f 93//34 94//34 95//34
f 96//2 97//2 98//2
f 99//35 11//35 100//35
f 37//36 44//36 43//36
f 71//37 101//37 102//37
f 101//38 70//38 69//38
f 70//39 101//39 71//39
f 103//40 102//40 101//40
f 80//41 104//41 105//41
f 106//42 84//42 105//42
f 106//43 105//43 107//43
f 101//44 69//44 103//44
f 105//45 104//45 107//45
f 81//46 80//46 105//46
f 68//47 70//47 72//47
f 78//48 69//48 73//48
f 73//49 74//49 78//49
f 102//50 69//50 78//50
f 81//51 105//51 84//51
f 77//52 76//52 108//52
f 77//53 109//53 78//53
f 110//54 108//54 111//54
f 77//55 107//55 75//55
f 104//56 80//56 79//56
f 75//57 107//57 104//57
f 106//58 74//58 84//58
f 78//59 112//59 102//59
f 74//60 85//60 84//60
f 113//61 76//61 75//61
f 109//62 77//62 110//62
f 77//63 74//63 106//63
f 75//64 79//64 113//64
f 110//65 82//65 109//65
f 78//66 83//66 112//66
f 77//67 106//67 107//67
f 76//68 111//68 108//68
f 112//69 85//69 74//69
f 81//70 113//70 79//70
f 75//71 104//71 79//71
f 114//72 48//72 115//72
f 111//73 115//73 116//73
f 82//74 110//74 117//74
f 112//75 83//75 118//75
f 111//76 114//76 115//76
f 74//77 71//77 112//77
f 114//78 76//78 119//78
f 116//79 110//79 111//79
f 66//80 85//80 112//80
f 113//81 85//81 51//81
f 118//82 50//82 67//82
f 66//83 118//83 67//83
f 120//84 31//84 30//84
f 30//85 32//85 66//85
f 32//86 31//86 47//86
f 53//87 113//87 51//87
f 110//88 116//88 117//88
f 83//89 117//89 118//89
f 30//90 86//90 120//90
f 112//91 71//91 102//91
f 81//92 85//92 113//92
f 118//93 117//93 50//93
f 67//94 87//94 30//94
f 86//95 121//95 122//95
f 123//96 31//96 120//96
f 53//97 119//97 113//97
f 122//98 120//98 86//98
f 124//99 119//99 53//99
f 116//100 48//100 117//100
f 121//101 125//101 122//101
f 66//102 32//102 126//102
f 126//103 85//103 66//103
f 126//104 127//104 51//104
f 53//105 128//105 124//105
f 86//106 129//106 121//106
f 47//107 31//107 123//107
f 127//108 126//108 32//108
f 48//109 114//109 124//109
f 66//110 112//110 118//110
f 123//111 88//111 47//111
f 128//112 53//112 52//112
f 130//113 48//113 124//113
f 130//114 49//114 48//114
f 125//115 131//115 122//115
f 45//116 132//116 46//116
f 133//117 130//117 124//117
f 115//118 48//118 116//118
f 122//119 131//119 120//119
f 123//120 120//120 131//120
f 46//121 132//121 127//121
f 134//122 50//122 49//122
f 129//123 135//123 121//123
f 87//124 50//124 86//124
f 131//125 136//125 137//125
f 85//126 126//126 51//126
f 45//127 138//127 132//127
f 60//128 127//128 132//128
f 139//129 140//129 133//129
f 133//130 140//130 130//130
f 140//131 49//131 130//131
f 135//132 129//132 141//132
f 135//133 142//133 121//133
f 46//134 127//134 32//134
f 129//135 143//135 141//135
f 144//136 131//136 125//136
f 136//137 131//137 145//137
f 146//138 61//138 138//138
f 147//139 52//139 51//139
f 128//140 52//140 148//140
f 141//141 143//141 96//141
f 141//142 149//142 142//142
f 145//143 131//143 144//143
f 137//144 136//144 150//144
f 59//145 151//145 60//145
f 129//146 152//146 143//146
f 96//147 149//147 141//147
f 142//148 29//148 125//148
f 145//149 2//149 153//149
f 88//150 154//150 45//150
f 155//151 138//151 45//151
f 156//152 157//152 158//152
f 125//153 121//153 142//153
f 154//154 88//154 137//154
f 60//155 132//155 138//155
f 157//156 133//156 128//156
f 139//157 133//157 157//157
f 138//158 61//158 60//158
f 127//159 147//159 51//159
f 128//160 148//160 157//160
f 157//161 159//161 139//161
f 160//162 150//162 145//162
f 160//163 145//163 153//163
f 154//164 155//164 45//164
f 146//165 138//165 155//165
f 158//166 157//166 148//166
f 139//167 161//167 134//167
f 161//168 152//168 134//168
f 152//169 50//169 134//169
f 141//170 142//170 135//170
f 29//171 2//171 144//171
f 136//172 145//172 150//172
f 151//173 127//173 60//173
f 148//174 52//174 147//174
f 29//175 142//175 149//175
f 125//176 29//176 144//176
f 151//177 158//177 147//177
f 158//178 151//178 59//178
f 151//179 147//179 127//179
f 148//180 147//180 158//180
f 156//181 159//181 157//181
f 156//182 94//182 159//182
f 161//183 139//183 159//183
f 162//184 14//184 150//184
f 155//185 91//185 62//185
f 25//186 17//186 61//186
f 94//187 93//187 163//187
f 143//188 164//188 96//188
f 2//189 34//189 153//189
f 20//190 152//190 161//190
f 152//191 165//191 143//191
f 153//192 162//192 160//192
f 162//193 150//193 160//193
f 150//194 91//194 154//194
f 44//195 59//195 17//195
f 58//196 44//196 37//196
f 159//197 20//197 161//197
f 11//198 149//198 96//198
f 150//199 166//199 91//199
f 167//200 168//200 44//200
f 94//201 58//201 95//201
f 165//202 164//202 143//202
f 169//203 170//203 97//203
f 164//2 165//2 9//2
f 55//204 166//204 14//204
f 162//205 153//205 34//205
f 14//206 166//206 150//206
f 8//2 171//2 164//2
f 12//207 11//207 96//207
f 149//208 11//208 29//208
f 11//209 99//209 172//209
f 173//210 34//210 2//210
f 62//211 146//211 155//211
f 155//212 154//212 91//212
f 17//2 92//2 64//2
f 59//213 44//213 158//213
f 94//214 20//214 159//214
f 174//2 175//2 176//2
f 163//2 176//2 175//2
f 164//2 9//2 8//2
f 34//215 33//215 177//215
f 34//216 178//216 22//216
f 89//217 91//217 166//217
f 17//2 16//2 179//2
f 65//2 18//2 17//2
f 36//2 180//2 181//2
f 40//2 95//2 58//2
f 163//218 175//218 20//218
f 152//219 20//219 165//219
f 169//203 97//203 164//203
f 170//2 182//2 97//2
f 177//220 178//220 34//220
f 183//221 2//221 184//221
f 14//222 162//222 34//222
f 91//223 185//223 186//223
f 90//224 185//224 91//224
f 187//225 25//225 27//225
f 188//226 56//226 25//226
f 189//203 16//203 190//203
f 168//2 191//2 42//2
f 44//227 168//227 42//227
f 192//2 58//2 193//2
f 40//2 194//2 41//2
f 57//2 195//2 196//2
f 163//228 20//228 94//228
f 21//229 20//229 175//229
f 175//2 197//2 21//2
f 6//203 198//203 165//203
f 100//230 11//230 10//230
f 2//231 1//231 173//231
f 55//203 199//203 166//203
f 91//232 186//232 62//232
f 200//233 25//233 187//233
f 189//2 179//2 16//2
f 58//234 158//234 44//234
f 158//235 58//235 156//235
f 39//2 95//2 40//2
f 165//236 20//236 6//236
f 6//237 20//237 19//237
f 97//2 96//2 164//2
f 172//238 29//238 11//238
f 201//239 202//239 2//239
f 202//240 184//240 2//240
f 35//241 34//241 203//241
f 3//242 2//242 183//242
f 22//243 14//243 34//243
f 24//244 54//244 14//244
f 204//245 25//245 63//245
f 146//246 62//246 25//246
f 204//247 26//247 25//247
f 25//248 200//248 188//248
f 167//249 44//249 17//249
f 167//2 17//2 205//2
f 57//2 196//2 40//2
f 58//2 192//2 57//2
f 206//2 175//2 174//2
f 207//2 208//2 163//2
f 209//2 19//2 21//2
f 208//2 176//2 163//2
f 4//2 6//2 19//2
f 210//2 21//2 197//2
f 124//250 114//250 119//250
f 140//251 134//251 49//251
f 37//2 36//2 58//2
f 201//252 2//252 28//252
f 181//2 58//2 36//2
f 211//2 191//2 168//2
f 203//253 34//253 173//253
f 61//254 17//254 59//254
f 156//255 58//255 94//255
f 61//256 146//256 25//256
f 145//257 144//257 2//257
f 50//258 152//258 129//258
f 86//259 50//259 129//259
f 139//260 134//260 140//260
f 150//261 154//261 137//261
f 124//262 128//262 133//262
f 123//263 131//263 137//263
f 137//264 88//264 123//264
f 46//265 32//265 47//265
f 87//266 67//266 50//266
f 117//267 48//267 50//267
f 117//268 83//268 82//268
f 111//269 76//269 114//269
f 119//270 76//270 113//270
f 109//271 82//271 78//271
f 72//272 74//272 73//272
f 110//273 77//273 108//273
f 69//274 102//274 103//274
f 73//275 69//275 68//275
# Vertices: 211, normals: 275, texture coordinates: 0, faces: 318

